# xmcd
#
# Track frame offsets: 
#        150
#        20676
#        35181
#        48902
#        61293
#        80915
#        94107
#        120395
#        136714
#        153786
#        176234
#        191731
#
# Disc length: 2897 seconds
#
# Revision: 2
# Processed by: cddbd v1.5.2PL0 Copyright (c) Steve Scherf et al.
# Submitted via: ExactAudioCopy v1.1
#
DISCID=a00b4f0c
DTITLE=Tiny Dancers - Free School Milk
DYEAR=2007
DGENRE=Indie
TTITLE0=20 To 9
TTITLE1=I Will Wait For You
TTITLE2=Baby Love
TTITLE3=Shame
TTITLE4=Ashes And Diamonds
TTITLE5=Bonfire Of The Night
TTITLE6=Moonsong #2
TTITLE7=Hannah, We Know
TTITLE8=Hemsworth Hallway
TTITLE9=Sun Goes Down
TTITLE10=|'ve Got To Go
TTITLE11=Deep Water
EXTD=
EXTT0=
EXTT1=
EXTT2=
EXTT3=
EXTT4=
EXTT5=
EXTT6=
EXTT7=
EXTT8=
EXTT9=
EXTT10=
EXTT11=
PLAYORDER=
